<svg width="144" height="23" viewBox="0 0 144 23" fill="none" xmlns="http://www.w3.org/2000/svg">
<path d="M-0.0079999 18V1.2H7.624C9.448 1.2 11.056 1.552 12.448 2.256C13.84 2.944 14.928 3.912 15.712 5.16C16.496 6.408 16.888 7.888 16.888 9.6C16.888 11.296 16.496 12.776 15.712 14.04C14.928 15.288 13.84 16.264 12.448 16.968C11.056 17.656 9.448 18 7.624 18H-0.0079999ZM3.88 14.808H7.432C8.552 14.808 9.52 14.6 10.336 14.184C11.168 13.752 11.808 13.144 12.256 12.36C12.72 11.576 12.952 10.656 12.952 9.6C12.952 8.528 12.72 7.608 12.256 6.84C11.808 6.056 11.168 5.456 10.336 5.04C9.52 4.608 8.552 4.392 7.432 4.392H3.88V14.808ZM25.0041 18.192C23.9321 18.192 22.9721 17.984 22.1241 17.568C21.2921 17.152 20.6441 16.52 20.1801 15.672C19.7161 14.808 19.4841 13.712 19.4841 12.384V5.088H23.2281V11.832C23.2281 12.904 23.4521 13.696 23.9001 14.208C24.3641 14.704 25.0121 14.952 25.8441 14.952C26.4201 14.952 26.9321 14.832 27.3801 14.592C27.8281 14.336 28.1801 13.952 28.4361 13.44C28.6921 12.912 28.8201 12.256 28.8201 11.472V5.088H32.5641V18H29.0121V14.448L29.6601 15.48C29.2281 16.376 28.5881 17.056 27.7401 17.52C26.9081 17.968 25.9961 18.192 25.0041 18.192ZM41.5767 18.192C40.3607 18.192 39.2647 17.92 38.2887 17.376C37.3127 16.816 36.5367 16.04 35.9607 15.048C35.4007 14.056 35.1207 12.888 35.1207 11.544C35.1207 10.184 35.4007 9.008 35.9607 8.016C36.5367 7.024 37.3127 6.256 38.2887 5.712C39.2647 5.168 40.3607 4.896 41.5767 4.896C42.6647 4.896 43.6167 5.136 44.4327 5.616C45.2487 6.096 45.8807 6.824 46.3287 7.8C46.7767 8.776 47.0007 10.024 47.0007 11.544C47.0007 13.048 46.7847 14.296 46.3527 15.288C45.9207 16.264 45.2967 16.992 44.4807 17.472C43.6807 17.952 42.7127 18.192 41.5767 18.192ZM42.2247 15.12C42.8327 15.12 43.3847 14.976 43.8807 14.688C44.3767 14.4 44.7687 13.992 45.0567 13.464C45.3607 12.92 45.5127 12.28 45.5127 11.544C45.5127 10.792 45.3607 10.152 45.0567 9.624C44.7687 9.096 44.3767 8.688 43.8807 8.4C43.3847 8.112 42.8327 7.968 42.2247 7.968C41.6007 7.968 41.0407 8.112 40.5447 8.4C40.0487 8.688 39.6487 9.096 39.3447 9.624C39.0567 10.152 38.9127 10.792 38.9127 11.544C38.9127 12.28 39.0567 12.92 39.3447 13.464C39.6487 13.992 40.0487 14.4 40.5447 14.688C41.0407 14.976 41.6007 15.12 42.2247 15.12ZM45.6087 18V15.36L45.6807 11.52L45.4407 7.704V0.191999H49.1847V18H45.6087ZM59.0579 18.192C57.5859 18.192 56.2899 17.904 55.1699 17.328C54.0659 16.752 53.2099 15.968 52.6019 14.976C51.9939 13.968 51.6899 12.824 51.6899 11.544C51.6899 10.248 51.9859 9.104 52.5779 8.112C53.1859 7.104 54.0099 6.32 55.0499 5.76C56.0899 5.184 57.2659 4.896 58.5779 4.896C59.8419 4.896 60.9779 5.168 61.9859 5.712C63.0099 6.24 63.8179 7.008 64.4099 8.016C65.0019 9.008 65.2979 10.2 65.2979 11.592C65.2979 11.736 65.2899 11.904 65.2739 12.096C65.2579 12.272 65.2419 12.44 65.2259 12.6H54.7379V10.416H63.2579L61.8179 11.064C61.8179 10.392 61.6819 9.808 61.4099 9.312C61.1379 8.816 60.7619 8.432 60.2819 8.16C59.8019 7.872 59.2419 7.728 58.6019 7.728C57.9619 7.728 57.3939 7.872 56.8979 8.16C56.4179 8.432 56.0419 8.824 55.7699 9.336C55.4979 9.832 55.3619 10.424 55.3619 11.112V11.688C55.3619 12.392 55.5139 13.016 55.8179 13.56C56.1379 14.088 56.5779 14.496 57.1379 14.784C57.7139 15.056 58.3859 15.192 59.1539 15.192C59.8419 15.192 60.4419 15.088 60.9539 14.88C61.4819 14.672 61.9619 14.36 62.3939 13.944L64.3859 16.104C63.7939 16.776 63.0499 17.296 62.1539 17.664C61.2579 18.016 60.2259 18.192 59.0579 18.192ZM73.5745 18.288C72.2305 18.288 70.9425 18.112 69.7105 17.76C68.4785 17.392 67.4865 16.92 66.7345 16.344L68.0545 13.416C68.7745 13.928 69.6225 14.352 70.5985 14.688C71.5905 15.008 72.5905 15.168 73.5985 15.168C74.3665 15.168 74.9825 15.096 75.4465 14.952C75.9265 14.792 76.2785 14.576 76.5025 14.304C76.7265 14.032 76.8385 13.72 76.8385 13.368C76.8385 12.92 76.6625 12.568 76.3105 12.312C75.9585 12.04 75.4945 11.824 74.9185 11.664C74.3425 11.488 73.7025 11.328 72.9985 11.184C72.3105 11.024 71.6145 10.832 70.9105 10.608C70.2225 10.384 69.5905 10.096 69.0145 9.744C68.4385 9.392 67.9665 8.928 67.5985 8.352C67.2465 7.776 67.0705 7.04 67.0705 6.144C67.0705 5.184 67.3265 4.312 67.8385 3.528C68.3665 2.728 69.1505 2.096 70.1905 1.632C71.2465 1.152 72.5665 0.912 74.1505 0.912C75.2065 0.912 76.2465 1.04 77.2705 1.296C78.2945 1.536 79.1985 1.904 79.9825 2.4L78.7825 5.352C77.9985 4.904 77.2145 4.576 76.4305 4.368C75.6465 4.144 74.8785 4.032 74.1265 4.032C73.3745 4.032 72.7585 4.12 72.2785 4.296C71.7985 4.472 71.4545 4.704 71.2465 4.992C71.0385 5.264 70.9345 5.584 70.9345 5.952C70.9345 6.384 71.1105 6.736 71.4625 7.008C71.8145 7.264 72.2785 7.472 72.8545 7.632C73.4305 7.792 74.0625 7.952 74.7505 8.112C75.4545 8.272 76.1505 8.456 76.8385 8.664C77.5425 8.872 78.1825 9.152 78.7585 9.504C79.3345 9.856 79.7985 10.32 80.1505 10.896C80.5185 11.472 80.7025 12.2 80.7025 13.08C80.7025 14.024 80.4385 14.888 79.9105 15.672C79.3825 16.456 78.5905 17.088 77.5345 17.568C76.4945 18.048 75.1745 18.288 73.5745 18.288ZM90.9432 4.896C91.9672 4.896 92.8792 5.104 93.6792 5.52C94.4952 5.92 95.1352 6.544 95.5992 7.392C96.0632 8.224 96.2952 9.296 96.2952 10.608V18H92.5512V11.184C92.5512 10.144 92.3192 9.376 91.8552 8.88C91.4072 8.384 90.7672 8.136 89.9352 8.136C89.3432 8.136 88.8072 8.264 88.3272 8.52C87.8632 8.76 87.4952 9.136 87.2232 9.648C86.9672 10.16 86.8392 10.816 86.8392 11.616V18H83.0952V0.191999H86.8392V8.664L85.9992 7.584C86.4632 6.72 87.1272 6.056 87.9912 5.592C88.8552 5.128 89.8392 4.896 90.9432 4.896ZM107.609 18V15.48L107.369 14.928V10.416C107.369 9.616 107.121 8.992 106.625 8.544C106.145 8.096 105.401 7.872 104.393 7.872C103.705 7.872 103.025 7.984 102.353 8.208C101.697 8.416 101.137 8.704 100.673 9.072L99.3289 6.456C100.033 5.96 100.881 5.576 101.873 5.304C102.865 5.032 103.873 4.896 104.897 4.896C106.865 4.896 108.393 5.36 109.481 6.288C110.569 7.216 111.113 8.664 111.113 10.632V18H107.609ZM103.673 18.192C102.665 18.192 101.801 18.024 101.081 17.688C100.361 17.336 99.8089 16.864 99.4249 16.272C99.0409 15.68 98.8489 15.016 98.8489 14.28C98.8489 13.512 99.0329 12.84 99.4009 12.264C99.7849 11.688 100.385 11.24 101.201 10.92C102.017 10.584 103.081 10.416 104.393 10.416H107.825V12.6H104.801C103.921 12.6 103.313 12.744 102.977 13.032C102.657 13.32 102.497 13.68 102.497 14.112C102.497 14.592 102.681 14.976 103.049 15.264C103.433 15.536 103.953 15.672 104.609 15.672C105.233 15.672 105.793 15.528 106.289 15.24C106.785 14.936 107.145 14.496 107.369 13.92L107.945 15.648C107.673 16.48 107.177 17.112 106.457 17.544C105.737 17.976 104.809 18.192 103.673 18.192ZM122.133 18.192C121.045 18.192 120.093 17.952 119.277 17.472C118.461 16.992 117.821 16.264 117.357 15.288C116.909 14.296 116.685 13.048 116.685 11.544C116.685 10.024 116.901 8.776 117.333 7.8C117.765 6.824 118.389 6.096 119.205 5.616C120.021 5.136 120.997 4.896 122.133 4.896C123.349 4.896 124.437 5.176 125.397 5.736C126.373 6.28 127.141 7.048 127.701 8.04C128.277 9.032 128.565 10.2 128.565 11.544C128.565 12.904 128.277 14.08 127.701 15.072C127.141 16.064 126.373 16.832 125.397 17.376C124.437 17.92 123.349 18.192 122.133 18.192ZM114.501 22.656V5.088H118.077V7.728L118.005 11.568L118.245 15.384V22.656H114.501ZM121.485 15.12C122.109 15.12 122.661 14.976 123.141 14.688C123.637 14.4 124.029 13.992 124.317 13.464C124.621 12.92 124.773 12.28 124.773 11.544C124.773 10.792 124.621 10.152 124.317 9.624C124.029 9.096 123.637 8.688 123.141 8.4C122.661 8.112 122.109 7.968 121.485 7.968C120.861 7.968 120.301 8.112 119.805 8.4C119.309 8.688 118.917 9.096 118.629 9.624C118.341 10.152 118.197 10.792 118.197 11.544C118.197 12.28 118.341 12.92 118.629 13.464C118.917 13.992 119.309 14.4 119.805 14.688C120.301 14.976 120.861 15.12 121.485 15.12ZM137.48 18.192C136.008 18.192 134.712 17.904 133.592 17.328C132.488 16.752 131.632 15.968 131.024 14.976C130.416 13.968 130.112 12.824 130.112 11.544C130.112 10.248 130.408 9.104 131 8.112C131.608 7.104 132.432 6.32 133.472 5.76C134.512 5.184 135.688 4.896 137 4.896C138.264 4.896 139.4 5.168 140.408 5.712C141.432 6.24 142.24 7.008 142.832 8.016C143.424 9.008 143.72 10.2 143.72 11.592C143.72 11.736 143.712 11.904 143.696 12.096C143.68 12.272 143.664 12.44 143.648 12.6H133.16V10.416H141.68L140.24 11.064C140.24 10.392 140.104 9.808 139.832 9.312C139.56 8.816 139.184 8.432 138.704 8.16C138.224 7.872 137.664 7.728 137.024 7.728C136.384 7.728 135.816 7.872 135.32 8.16C134.84 8.432 134.464 8.824 134.192 9.336C133.92 9.832 133.784 10.424 133.784 11.112V11.688C133.784 12.392 133.936 13.016 134.24 13.56C134.56 14.088 135 14.496 135.56 14.784C136.136 15.056 136.808 15.192 137.576 15.192C138.264 15.192 138.864 15.088 139.376 14.88C139.904 14.672 140.384 14.36 140.816 13.944L142.808 16.104C142.216 16.776 141.472 17.296 140.576 17.664C139.68 18.016 138.648 18.192 137.48 18.192Z" fill="#244D4D"/>
</svg>
